<mxfile host="app.diagrams.net" modified="2023-02-02T03:06:01.672Z" agent="5.0 (Windows NT 10.0; WOW64) AppleWebKit/537.36 (KHTML, like Gecko) Chrome/102.0.0.0 Safari/537.36" etag="RdysZWQxc1PJuxAur6nH" version="20.8.3" type="github">
  <diagram id="im9GRIwv_YHFmb2RO8RA" name="第 1 页">
    <mxGraphModel dx="1180" dy="720" grid="0" gridSize="10" guides="1" tooltips="1" connect="1" arrows="1" fold="1" page="1" pageScale="1" pageWidth="827" pageHeight="1169" math="0" shadow="0">
      <root>
        <mxCell id="0" />
        <mxCell id="1" parent="0" />
        <mxCell id="-rISn7PbRb6-R7wNObkJ-123" value="" style="swimlane;startSize=0;strokeWidth=2;" parent="1" vertex="1">
          <mxGeometry x="117" y="523" width="280" height="200" as="geometry">
            <mxRectangle x="120" y="280" width="50" height="40" as="alternateBounds" />
          </mxGeometry>
        </mxCell>
        <mxCell id="-rISn7PbRb6-R7wNObkJ-124" value="" style="group;rotation=40;" parent="-rISn7PbRb6-R7wNObkJ-123" vertex="1" connectable="0">
          <mxGeometry x="142" y="103" width="20" height="30" as="geometry" />
        </mxCell>
        <mxCell id="-rISn7PbRb6-R7wNObkJ-125" value="" style="ellipse;whiteSpace=wrap;html=1;aspect=fixed;fillColor=#FF66B3;rotation=40;" parent="-rISn7PbRb6-R7wNObkJ-124" vertex="1">
          <mxGeometry x="15" y="6" width="10" height="10" as="geometry" />
        </mxCell>
        <mxCell id="-rISn7PbRb6-R7wNObkJ-126" value="" style="ellipse;whiteSpace=wrap;html=1;aspect=fixed;fillColor=#FF66B3;rotation=40;" parent="-rISn7PbRb6-R7wNObkJ-124" vertex="1">
          <mxGeometry x="-10" y="13" width="10" height="10" as="geometry" />
        </mxCell>
        <mxCell id="-rISn7PbRb6-R7wNObkJ-127" value="" style="endArrow=none;html=1;rounded=0;startArrow=none;" parent="-rISn7PbRb6-R7wNObkJ-124" source="-rISn7PbRb6-R7wNObkJ-126" target="-rISn7PbRb6-R7wNObkJ-125" edge="1">
          <mxGeometry width="50" height="50" relative="1" as="geometry">
            <mxPoint x="-33" y="51" as="sourcePoint" />
            <mxPoint x="37" y="44" as="targetPoint" />
          </mxGeometry>
        </mxCell>
        <mxCell id="-rISn7PbRb6-R7wNObkJ-128" value="" style="group;rotation=40;" parent="-rISn7PbRb6-R7wNObkJ-124" vertex="1" connectable="0">
          <mxGeometry x="-10" y="-24" width="20" height="30" as="geometry" />
        </mxCell>
        <mxCell id="-rISn7PbRb6-R7wNObkJ-129" value="" style="ellipse;whiteSpace=wrap;html=1;aspect=fixed;fillColor=#FF66B3;rotation=40;" parent="-rISn7PbRb6-R7wNObkJ-128" vertex="1">
          <mxGeometry x="15" y="6" width="10" height="10" as="geometry" />
        </mxCell>
        <mxCell id="-rISn7PbRb6-R7wNObkJ-130" value="" style="ellipse;whiteSpace=wrap;html=1;aspect=fixed;fillColor=#FF66B3;rotation=40;" parent="-rISn7PbRb6-R7wNObkJ-128" vertex="1">
          <mxGeometry x="-5" y="14" width="10" height="10" as="geometry" />
        </mxCell>
        <mxCell id="-rISn7PbRb6-R7wNObkJ-131" value="" style="endArrow=none;html=1;rounded=0;startArrow=none;" parent="-rISn7PbRb6-R7wNObkJ-128" source="-rISn7PbRb6-R7wNObkJ-130" target="-rISn7PbRb6-R7wNObkJ-129" edge="1">
          <mxGeometry width="50" height="50" relative="1" as="geometry">
            <mxPoint x="-33" y="51" as="sourcePoint" />
            <mxPoint x="37" y="44" as="targetPoint" />
          </mxGeometry>
        </mxCell>
        <mxCell id="-rISn7PbRb6-R7wNObkJ-132" value="" style="group;rotation=20;" parent="-rISn7PbRb6-R7wNObkJ-123" vertex="1" connectable="0">
          <mxGeometry x="131" y="62" width="20" height="30" as="geometry" />
        </mxCell>
        <mxCell id="-rISn7PbRb6-R7wNObkJ-133" value="" style="ellipse;whiteSpace=wrap;html=1;aspect=fixed;fillColor=#FF66B3;rotation=20;" parent="-rISn7PbRb6-R7wNObkJ-132" vertex="1">
          <mxGeometry x="13" y="3" width="10" height="10" as="geometry" />
        </mxCell>
        <mxCell id="-rISn7PbRb6-R7wNObkJ-134" value="" style="ellipse;whiteSpace=wrap;html=1;aspect=fixed;fillColor=#FF66B3;rotation=20;" parent="-rISn7PbRb6-R7wNObkJ-132" vertex="1">
          <mxGeometry x="-3" y="17" width="10" height="10" as="geometry" />
        </mxCell>
        <mxCell id="-rISn7PbRb6-R7wNObkJ-135" value="" style="endArrow=none;html=1;rounded=0;startArrow=none;" parent="-rISn7PbRb6-R7wNObkJ-132" source="-rISn7PbRb6-R7wNObkJ-134" target="-rISn7PbRb6-R7wNObkJ-133" edge="1">
          <mxGeometry width="50" height="50" relative="1" as="geometry">
            <mxPoint x="-18" y="64" as="sourcePoint" />
            <mxPoint x="45" y="33" as="targetPoint" />
          </mxGeometry>
        </mxCell>
        <mxCell id="-rISn7PbRb6-R7wNObkJ-136" value="" style="group;rotation=15;" parent="-rISn7PbRb6-R7wNObkJ-132" vertex="1" connectable="0">
          <mxGeometry x="-7" y="-17" width="20" height="30" as="geometry" />
        </mxCell>
        <mxCell id="-rISn7PbRb6-R7wNObkJ-137" value="" style="ellipse;whiteSpace=wrap;html=1;aspect=fixed;fillColor=#FF66B3;rotation=15;" parent="-rISn7PbRb6-R7wNObkJ-136" vertex="1">
          <mxGeometry x="12" y="2" width="10" height="10" as="geometry" />
        </mxCell>
        <mxCell id="-rISn7PbRb6-R7wNObkJ-138" value="" style="ellipse;whiteSpace=wrap;html=1;aspect=fixed;fillColor=#FF66B3;rotation=15;" parent="-rISn7PbRb6-R7wNObkJ-136" vertex="1">
          <mxGeometry x="-2" y="18" width="10" height="10" as="geometry" />
        </mxCell>
        <mxCell id="-rISn7PbRb6-R7wNObkJ-139" value="" style="endArrow=none;html=1;rounded=0;startArrow=none;" parent="-rISn7PbRb6-R7wNObkJ-136" source="-rISn7PbRb6-R7wNObkJ-138" target="-rISn7PbRb6-R7wNObkJ-137" edge="1">
          <mxGeometry width="50" height="50" relative="1" as="geometry">
            <mxPoint x="-14" y="66" as="sourcePoint" />
            <mxPoint x="47" y="30" as="targetPoint" />
          </mxGeometry>
        </mxCell>
        <mxCell id="-rISn7PbRb6-R7wNObkJ-140" value="" style="group;rotation=90;" parent="-rISn7PbRb6-R7wNObkJ-123" vertex="1" connectable="0">
          <mxGeometry x="112" y="29" width="20" height="30" as="geometry" />
        </mxCell>
        <mxCell id="-rISn7PbRb6-R7wNObkJ-141" value="" style="ellipse;whiteSpace=wrap;html=1;aspect=fixed;fillColor=#FF66B3;rotation=0;" parent="-rISn7PbRb6-R7wNObkJ-140" vertex="1">
          <mxGeometry x="11" width="10" height="10" as="geometry" />
        </mxCell>
        <mxCell id="-rISn7PbRb6-R7wNObkJ-142" value="" style="ellipse;whiteSpace=wrap;html=1;aspect=fixed;fillColor=#FF66B3;rotation=0;" parent="-rISn7PbRb6-R7wNObkJ-140" vertex="1">
          <mxGeometry x="-1" y="20" width="10" height="10" as="geometry" />
        </mxCell>
        <mxCell id="-rISn7PbRb6-R7wNObkJ-143" value="" style="endArrow=none;html=1;rounded=0;startArrow=none;" parent="-rISn7PbRb6-R7wNObkJ-140" edge="1">
          <mxGeometry width="50" height="50" relative="1" as="geometry">
            <mxPoint x="6.572478777155993" y="19.71253537140683" as="sourcePoint" />
            <mxPoint x="13.427521222844007" y="8.287464628593625" as="targetPoint" />
          </mxGeometry>
        </mxCell>
        <mxCell id="-rISn7PbRb6-R7wNObkJ-144" value="" style="group;rotation=105;" parent="-rISn7PbRb6-R7wNObkJ-123" vertex="1" connectable="0">
          <mxGeometry x="49" y="1" width="20" height="30" as="geometry" />
        </mxCell>
        <mxCell id="-rISn7PbRb6-R7wNObkJ-145" value="" style="ellipse;whiteSpace=wrap;html=1;aspect=fixed;fillColor=#FF66B3;rotation=15;" parent="-rISn7PbRb6-R7wNObkJ-144" vertex="1">
          <mxGeometry x="69" y="17" width="10" height="10" as="geometry" />
        </mxCell>
        <mxCell id="-rISn7PbRb6-R7wNObkJ-146" value="" style="ellipse;whiteSpace=wrap;html=1;aspect=fixed;fillColor=#FF66B3;rotation=15;" parent="-rISn7PbRb6-R7wNObkJ-144" vertex="1">
          <mxGeometry x="54" y="33" width="10" height="10" as="geometry" />
        </mxCell>
        <mxCell id="-rISn7PbRb6-R7wNObkJ-147" value="" style="endArrow=none;html=1;rounded=0;startArrow=none;" parent="-rISn7PbRb6-R7wNObkJ-144" source="-rISn7PbRb6-R7wNObkJ-146" edge="1">
          <mxGeometry width="50" height="50" relative="1" as="geometry">
            <mxPoint x="43" y="81" as="sourcePoint" />
            <mxPoint x="72" y="26" as="targetPoint" />
          </mxGeometry>
        </mxCell>
        <mxCell id="-rISn7PbRb6-R7wNObkJ-148" value="" style="group;rotation=15;" parent="1" vertex="1" connectable="0">
          <mxGeometry x="252" y="597" width="20" height="30" as="geometry" />
        </mxCell>
        <mxCell id="-rISn7PbRb6-R7wNObkJ-149" value="" style="ellipse;whiteSpace=wrap;html=1;aspect=fixed;fillColor=#FF66B3;rotation=15;" parent="-rISn7PbRb6-R7wNObkJ-148" vertex="1">
          <mxGeometry x="12" y="2" width="10" height="10" as="geometry" />
        </mxCell>
        <mxCell id="-rISn7PbRb6-R7wNObkJ-150" value="" style="ellipse;whiteSpace=wrap;html=1;aspect=fixed;fillColor=#FF66B3;rotation=15;" parent="-rISn7PbRb6-R7wNObkJ-148" vertex="1">
          <mxGeometry x="-2" y="18" width="10" height="10" as="geometry" />
        </mxCell>
        <mxCell id="-rISn7PbRb6-R7wNObkJ-151" value="" style="endArrow=none;html=1;rounded=0;startArrow=none;" parent="-rISn7PbRb6-R7wNObkJ-148" source="-rISn7PbRb6-R7wNObkJ-150" target="-rISn7PbRb6-R7wNObkJ-149" edge="1">
          <mxGeometry width="50" height="50" relative="1" as="geometry">
            <mxPoint x="-14" y="66" as="sourcePoint" />
            <mxPoint x="47" y="30" as="targetPoint" />
          </mxGeometry>
        </mxCell>
        <mxCell id="-rISn7PbRb6-R7wNObkJ-152" value="" style="group;rotation=30;" parent="1" vertex="1" connectable="0">
          <mxGeometry x="259" y="611" width="20" height="30" as="geometry" />
        </mxCell>
        <mxCell id="-rISn7PbRb6-R7wNObkJ-153" value="" style="ellipse;whiteSpace=wrap;html=1;aspect=fixed;fillColor=#FF66B3;rotation=30;" parent="-rISn7PbRb6-R7wNObkJ-152" vertex="1">
          <mxGeometry x="14" y="4" width="10" height="10" as="geometry" />
        </mxCell>
        <mxCell id="-rISn7PbRb6-R7wNObkJ-154" value="" style="ellipse;whiteSpace=wrap;html=1;aspect=fixed;fillColor=#FF66B3;rotation=30;" parent="-rISn7PbRb6-R7wNObkJ-152" vertex="1">
          <mxGeometry x="-4" y="16" width="10" height="10" as="geometry" />
        </mxCell>
        <mxCell id="-rISn7PbRb6-R7wNObkJ-155" value="" style="endArrow=none;html=1;rounded=0;startArrow=none;" parent="-rISn7PbRb6-R7wNObkJ-152" source="-rISn7PbRb6-R7wNObkJ-154" target="-rISn7PbRb6-R7wNObkJ-153" edge="1">
          <mxGeometry width="50" height="50" relative="1" as="geometry">
            <mxPoint x="-26" y="58" as="sourcePoint" />
            <mxPoint x="42" y="39" as="targetPoint" />
          </mxGeometry>
        </mxCell>
        <mxCell id="-rISn7PbRb6-R7wNObkJ-156" value="" style="group;rotation=40;" parent="1" vertex="1" connectable="0">
          <mxGeometry x="210" y="648" width="20" height="56" as="geometry" />
        </mxCell>
        <mxCell id="-rISn7PbRb6-R7wNObkJ-157" value="" style="ellipse;whiteSpace=wrap;html=1;aspect=fixed;fillColor=#FF66B3;rotation=40;" parent="-rISn7PbRb6-R7wNObkJ-156" vertex="1">
          <mxGeometry x="74" y="6" width="10" height="10" as="geometry" />
        </mxCell>
        <mxCell id="-rISn7PbRb6-R7wNObkJ-158" value="" style="ellipse;whiteSpace=wrap;html=1;aspect=fixed;fillColor=#FF66B3;rotation=40;" parent="-rISn7PbRb6-R7wNObkJ-156" vertex="1">
          <mxGeometry x="54" y="14" width="10" height="10" as="geometry" />
        </mxCell>
        <mxCell id="-rISn7PbRb6-R7wNObkJ-159" value="" style="endArrow=none;html=1;rounded=0;startArrow=none;" parent="-rISn7PbRb6-R7wNObkJ-156" source="-rISn7PbRb6-R7wNObkJ-158" target="-rISn7PbRb6-R7wNObkJ-157" edge="1">
          <mxGeometry width="50" height="50" relative="1" as="geometry">
            <mxPoint x="26" y="51" as="sourcePoint" />
            <mxPoint x="96" y="44" as="targetPoint" />
          </mxGeometry>
        </mxCell>
        <mxCell id="-rISn7PbRb6-R7wNObkJ-160" value="" style="group;rotation=60;" parent="-rISn7PbRb6-R7wNObkJ-156" vertex="1" connectable="0">
          <mxGeometry x="42" y="3" width="20" height="40" as="geometry" />
        </mxCell>
        <mxCell id="-rISn7PbRb6-R7wNObkJ-161" value="" style="ellipse;whiteSpace=wrap;html=1;aspect=fixed;fillColor=#FF66B3;rotation=60;" parent="-rISn7PbRb6-R7wNObkJ-160" vertex="1">
          <mxGeometry x="43" y="10" width="10" height="10" as="geometry" />
        </mxCell>
        <mxCell id="-rISn7PbRb6-R7wNObkJ-162" value="" style="ellipse;whiteSpace=wrap;html=1;aspect=fixed;fillColor=#FF66B3;rotation=60;" parent="-rISn7PbRb6-R7wNObkJ-160" vertex="1">
          <mxGeometry x="21" y="11" width="10" height="10" as="geometry" />
        </mxCell>
        <mxCell id="-rISn7PbRb6-R7wNObkJ-163" value="" style="endArrow=none;html=1;rounded=0;startArrow=none;" parent="-rISn7PbRb6-R7wNObkJ-160" edge="1">
          <mxGeometry width="50" height="50" relative="1" as="geometry">
            <mxPoint x="30.999950434598986" y="14.977736766807084" as="sourcePoint" />
            <mxPoint x="43.000003582023055" y="14.994015021170298" as="targetPoint" />
          </mxGeometry>
        </mxCell>
        <mxCell id="-rISn7PbRb6-R7wNObkJ-164" value="" style="group;rotation=135;" parent="-rISn7PbRb6-R7wNObkJ-160" vertex="1" connectable="0">
          <mxGeometry x="-11" y="10" width="20" height="30" as="geometry" />
        </mxCell>
        <mxCell id="-rISn7PbRb6-R7wNObkJ-165" value="" style="ellipse;whiteSpace=wrap;html=1;aspect=fixed;fillColor=#FF66B3;rotation=45;" parent="-rISn7PbRb6-R7wNObkJ-164" vertex="1">
          <mxGeometry x="49" y="7" width="10" height="10" as="geometry" />
        </mxCell>
        <mxCell id="-rISn7PbRb6-R7wNObkJ-166" value="" style="ellipse;whiteSpace=wrap;html=1;aspect=fixed;fillColor=#FF66B3;rotation=45;" parent="-rISn7PbRb6-R7wNObkJ-164" vertex="1">
          <mxGeometry x="26" y="13" width="10" height="10" as="geometry" />
        </mxCell>
        <mxCell id="-rISn7PbRb6-R7wNObkJ-167" value="" style="endArrow=none;html=1;rounded=0;startArrow=none;" parent="-rISn7PbRb6-R7wNObkJ-164" target="-rISn7PbRb6-R7wNObkJ-165" edge="1">
          <mxGeometry width="50" height="50" relative="1" as="geometry">
            <mxPoint x="36.78336940214399" y="16.54419192108662" as="sourcePoint" />
            <mxPoint x="67" y="46" as="targetPoint" />
          </mxGeometry>
        </mxCell>
        <mxCell id="-rISn7PbRb6-R7wNObkJ-168" value="" style="group;rotation=120;" parent="-rISn7PbRb6-R7wNObkJ-156" vertex="1" connectable="0">
          <mxGeometry x="64" y="-18" width="20" height="30" as="geometry" />
        </mxCell>
        <mxCell id="-rISn7PbRb6-R7wNObkJ-169" value="" style="ellipse;whiteSpace=wrap;html=1;aspect=fixed;fillColor=#FF66B3;rotation=30;" parent="-rISn7PbRb6-R7wNObkJ-168" vertex="1">
          <mxGeometry x="15" y="4" width="10" height="10" as="geometry" />
        </mxCell>
        <mxCell id="-rISn7PbRb6-R7wNObkJ-170" value="" style="ellipse;whiteSpace=wrap;html=1;aspect=fixed;fillColor=#FF66B3;rotation=30;" parent="-rISn7PbRb6-R7wNObkJ-168" vertex="1">
          <mxGeometry x="-5" y="16" width="10" height="10" as="geometry" />
        </mxCell>
        <mxCell id="-rISn7PbRb6-R7wNObkJ-171" value="" style="endArrow=none;html=1;rounded=0;startArrow=none;" parent="-rISn7PbRb6-R7wNObkJ-168" source="-rISn7PbRb6-R7wNObkJ-170" target="-rISn7PbRb6-R7wNObkJ-169" edge="1">
          <mxGeometry width="50" height="50" relative="1" as="geometry">
            <mxPoint x="-26" y="58" as="sourcePoint" />
            <mxPoint x="41" y="39" as="targetPoint" />
          </mxGeometry>
        </mxCell>
        <mxCell id="-rISn7PbRb6-R7wNObkJ-172" value="" style="group;rotation=90;" parent="1" vertex="1" connectable="0">
          <mxGeometry x="209" y="525" width="20" height="30" as="geometry" />
        </mxCell>
        <mxCell id="-rISn7PbRb6-R7wNObkJ-173" value="" style="ellipse;whiteSpace=wrap;html=1;aspect=fixed;fillColor=#FF66B3;rotation=0;" parent="-rISn7PbRb6-R7wNObkJ-172" vertex="1">
          <mxGeometry x="11" width="10" height="10" as="geometry" />
        </mxCell>
        <mxCell id="-rISn7PbRb6-R7wNObkJ-174" value="" style="ellipse;whiteSpace=wrap;html=1;aspect=fixed;fillColor=#FF66B3;rotation=0;" parent="-rISn7PbRb6-R7wNObkJ-172" vertex="1">
          <mxGeometry x="-1" y="20" width="10" height="10" as="geometry" />
        </mxCell>
        <mxCell id="-rISn7PbRb6-R7wNObkJ-175" value="" style="endArrow=none;html=1;rounded=0;startArrow=none;" parent="-rISn7PbRb6-R7wNObkJ-172" source="-rISn7PbRb6-R7wNObkJ-174" target="-rISn7PbRb6-R7wNObkJ-173" edge="1">
          <mxGeometry width="50" height="50" relative="1" as="geometry">
            <mxPoint y="70" as="sourcePoint" />
            <mxPoint x="49" y="20" as="targetPoint" />
          </mxGeometry>
        </mxCell>
        <mxCell id="-rISn7PbRb6-R7wNObkJ-233" value="" style="swimlane;startSize=0;strokeWidth=2;" parent="1" vertex="1">
          <mxGeometry x="441" y="523" width="280" height="200" as="geometry">
            <mxRectangle x="120" y="280" width="50" height="40" as="alternateBounds" />
          </mxGeometry>
        </mxCell>
        <mxCell id="-rISn7PbRb6-R7wNObkJ-234" value="" style="group;rotation=40;" parent="-rISn7PbRb6-R7wNObkJ-233" vertex="1" connectable="0">
          <mxGeometry x="174" y="91" width="20" height="30" as="geometry" />
        </mxCell>
        <mxCell id="-rISn7PbRb6-R7wNObkJ-235" value="" style="ellipse;whiteSpace=wrap;html=1;aspect=fixed;fillColor=#FF66B3;rotation=40;" parent="-rISn7PbRb6-R7wNObkJ-234" vertex="1">
          <mxGeometry x="15" y="6" width="10" height="10" as="geometry" />
        </mxCell>
        <mxCell id="-rISn7PbRb6-R7wNObkJ-236" value="" style="ellipse;whiteSpace=wrap;html=1;aspect=fixed;fillColor=#FF66B3;rotation=40;" parent="-rISn7PbRb6-R7wNObkJ-234" vertex="1">
          <mxGeometry x="-10" y="13" width="10" height="10" as="geometry" />
        </mxCell>
        <mxCell id="-rISn7PbRb6-R7wNObkJ-237" value="" style="endArrow=none;html=1;rounded=0;startArrow=none;" parent="-rISn7PbRb6-R7wNObkJ-234" source="-rISn7PbRb6-R7wNObkJ-236" target="-rISn7PbRb6-R7wNObkJ-235" edge="1">
          <mxGeometry width="50" height="50" relative="1" as="geometry">
            <mxPoint x="-33" y="51" as="sourcePoint" />
            <mxPoint x="37" y="44" as="targetPoint" />
          </mxGeometry>
        </mxCell>
        <mxCell id="-rISn7PbRb6-R7wNObkJ-238" value="" style="group;rotation=40;" parent="-rISn7PbRb6-R7wNObkJ-234" vertex="1" connectable="0">
          <mxGeometry x="-10" y="-24" width="20" height="30" as="geometry" />
        </mxCell>
        <mxCell id="-rISn7PbRb6-R7wNObkJ-239" value="" style="ellipse;whiteSpace=wrap;html=1;aspect=fixed;fillColor=#FF66B3;rotation=40;" parent="-rISn7PbRb6-R7wNObkJ-238" vertex="1">
          <mxGeometry x="15" y="6" width="10" height="10" as="geometry" />
        </mxCell>
        <mxCell id="-rISn7PbRb6-R7wNObkJ-240" value="" style="ellipse;whiteSpace=wrap;html=1;aspect=fixed;fillColor=#FF66B3;rotation=40;" parent="-rISn7PbRb6-R7wNObkJ-238" vertex="1">
          <mxGeometry x="-5" y="14" width="10" height="10" as="geometry" />
        </mxCell>
        <mxCell id="-rISn7PbRb6-R7wNObkJ-241" value="" style="endArrow=none;html=1;rounded=0;startArrow=none;" parent="-rISn7PbRb6-R7wNObkJ-238" source="-rISn7PbRb6-R7wNObkJ-240" target="-rISn7PbRb6-R7wNObkJ-239" edge="1">
          <mxGeometry width="50" height="50" relative="1" as="geometry">
            <mxPoint x="-33" y="51" as="sourcePoint" />
            <mxPoint x="37" y="44" as="targetPoint" />
          </mxGeometry>
        </mxCell>
        <mxCell id="-rISn7PbRb6-R7wNObkJ-242" value="" style="group;rotation=20;" parent="-rISn7PbRb6-R7wNObkJ-233" vertex="1" connectable="0">
          <mxGeometry x="133" y="43" width="20" height="30" as="geometry" />
        </mxCell>
        <mxCell id="-rISn7PbRb6-R7wNObkJ-243" value="" style="ellipse;whiteSpace=wrap;html=1;aspect=fixed;fillColor=#FF66B3;rotation=20;" parent="-rISn7PbRb6-R7wNObkJ-242" vertex="1">
          <mxGeometry x="16" y="-4" width="10" height="10" as="geometry" />
        </mxCell>
        <mxCell id="-rISn7PbRb6-R7wNObkJ-244" value="" style="ellipse;whiteSpace=wrap;html=1;aspect=fixed;fillColor=#FF66B3;rotation=20;" parent="-rISn7PbRb6-R7wNObkJ-242" vertex="1">
          <mxGeometry x="4" y="13" width="10" height="10" as="geometry" />
        </mxCell>
        <mxCell id="-rISn7PbRb6-R7wNObkJ-245" value="" style="endArrow=none;html=1;rounded=0;startArrow=none;" parent="-rISn7PbRb6-R7wNObkJ-242" source="-rISn7PbRb6-R7wNObkJ-244" target="-rISn7PbRb6-R7wNObkJ-243" edge="1">
          <mxGeometry width="50" height="50" relative="1" as="geometry">
            <mxPoint x="-18" y="64" as="sourcePoint" />
            <mxPoint x="45" y="33" as="targetPoint" />
          </mxGeometry>
        </mxCell>
        <mxCell id="-rISn7PbRb6-R7wNObkJ-246" value="" style="group;rotation=15;" parent="-rISn7PbRb6-R7wNObkJ-242" vertex="1" connectable="0">
          <mxGeometry x="-5" y="-18" width="20" height="30" as="geometry" />
        </mxCell>
        <mxCell id="-rISn7PbRb6-R7wNObkJ-247" value="" style="ellipse;whiteSpace=wrap;html=1;aspect=fixed;fillColor=#FF66B3;rotation=15;" parent="-rISn7PbRb6-R7wNObkJ-246" vertex="1">
          <mxGeometry x="12" y="2" width="10" height="10" as="geometry" />
        </mxCell>
        <mxCell id="-rISn7PbRb6-R7wNObkJ-248" value="" style="ellipse;whiteSpace=wrap;html=1;aspect=fixed;fillColor=#FF66B3;rotation=15;" parent="-rISn7PbRb6-R7wNObkJ-246" vertex="1">
          <mxGeometry x="-2" y="18" width="10" height="10" as="geometry" />
        </mxCell>
        <mxCell id="-rISn7PbRb6-R7wNObkJ-249" value="" style="endArrow=none;html=1;rounded=0;startArrow=none;" parent="-rISn7PbRb6-R7wNObkJ-246" source="-rISn7PbRb6-R7wNObkJ-248" target="-rISn7PbRb6-R7wNObkJ-247" edge="1">
          <mxGeometry width="50" height="50" relative="1" as="geometry">
            <mxPoint x="-14" y="66" as="sourcePoint" />
            <mxPoint x="47" y="30" as="targetPoint" />
          </mxGeometry>
        </mxCell>
        <mxCell id="-rISn7PbRb6-R7wNObkJ-250" value="" style="group;rotation=90;" parent="-rISn7PbRb6-R7wNObkJ-233" vertex="1" connectable="0">
          <mxGeometry x="119" y="16" width="20" height="30" as="geometry" />
        </mxCell>
        <mxCell id="-rISn7PbRb6-R7wNObkJ-251" value="" style="ellipse;whiteSpace=wrap;html=1;aspect=fixed;fillColor=#FF66B3;rotation=0;" parent="-rISn7PbRb6-R7wNObkJ-250" vertex="1">
          <mxGeometry x="11" width="10" height="10" as="geometry" />
        </mxCell>
        <mxCell id="-rISn7PbRb6-R7wNObkJ-252" value="" style="ellipse;whiteSpace=wrap;html=1;aspect=fixed;fillColor=#FF66B3;rotation=0;" parent="-rISn7PbRb6-R7wNObkJ-250" vertex="1">
          <mxGeometry x="-1" y="20" width="10" height="10" as="geometry" />
        </mxCell>
        <mxCell id="-rISn7PbRb6-R7wNObkJ-253" value="" style="endArrow=none;html=1;rounded=0;startArrow=none;" parent="-rISn7PbRb6-R7wNObkJ-250" edge="1">
          <mxGeometry width="50" height="50" relative="1" as="geometry">
            <mxPoint x="6.572478777155993" y="19.71253537140683" as="sourcePoint" />
            <mxPoint x="13.427521222844007" y="8.287464628593625" as="targetPoint" />
          </mxGeometry>
        </mxCell>
        <mxCell id="-rISn7PbRb6-R7wNObkJ-254" value="" style="group;rotation=105;" parent="-rISn7PbRb6-R7wNObkJ-233" vertex="1" connectable="0">
          <mxGeometry x="50" y="-9" width="20" height="30" as="geometry" />
        </mxCell>
        <mxCell id="-rISn7PbRb6-R7wNObkJ-255" value="" style="ellipse;whiteSpace=wrap;html=1;aspect=fixed;fillColor=#FF66B3;rotation=15;" parent="-rISn7PbRb6-R7wNObkJ-254" vertex="1">
          <mxGeometry x="69" y="17" width="10" height="10" as="geometry" />
        </mxCell>
        <mxCell id="-rISn7PbRb6-R7wNObkJ-256" value="" style="ellipse;whiteSpace=wrap;html=1;aspect=fixed;fillColor=#FF66B3;rotation=15;" parent="-rISn7PbRb6-R7wNObkJ-254" vertex="1">
          <mxGeometry x="54" y="33" width="10" height="10" as="geometry" />
        </mxCell>
        <mxCell id="-rISn7PbRb6-R7wNObkJ-257" value="" style="endArrow=none;html=1;rounded=0;startArrow=none;" parent="-rISn7PbRb6-R7wNObkJ-254" source="-rISn7PbRb6-R7wNObkJ-256" edge="1">
          <mxGeometry width="50" height="50" relative="1" as="geometry">
            <mxPoint x="43" y="81" as="sourcePoint" />
            <mxPoint x="72" y="26" as="targetPoint" />
          </mxGeometry>
        </mxCell>
        <mxCell id="-rISn7PbRb6-R7wNObkJ-258" value="" style="group;rotation=15;" parent="1" vertex="1" connectable="0">
          <mxGeometry x="574" y="595" width="20" height="30" as="geometry" />
        </mxCell>
        <mxCell id="-rISn7PbRb6-R7wNObkJ-259" value="" style="ellipse;whiteSpace=wrap;html=1;aspect=fixed;fillColor=#FF66B3;rotation=15;" parent="-rISn7PbRb6-R7wNObkJ-258" vertex="1">
          <mxGeometry x="12" y="2" width="10" height="10" as="geometry" />
        </mxCell>
        <mxCell id="-rISn7PbRb6-R7wNObkJ-260" value="" style="ellipse;whiteSpace=wrap;html=1;aspect=fixed;fillColor=#FF66B3;rotation=15;" parent="-rISn7PbRb6-R7wNObkJ-258" vertex="1">
          <mxGeometry x="23" y="-18" width="10" height="10" as="geometry" />
        </mxCell>
        <mxCell id="-rISn7PbRb6-R7wNObkJ-261" value="" style="endArrow=none;html=1;rounded=0;startArrow=none;" parent="-rISn7PbRb6-R7wNObkJ-258" source="-rISn7PbRb6-R7wNObkJ-260" target="-rISn7PbRb6-R7wNObkJ-259" edge="1">
          <mxGeometry width="50" height="50" relative="1" as="geometry">
            <mxPoint x="-14" y="66" as="sourcePoint" />
            <mxPoint x="47" y="30" as="targetPoint" />
          </mxGeometry>
        </mxCell>
        <mxCell id="-rISn7PbRb6-R7wNObkJ-262" value="" style="group;rotation=30;" parent="1" vertex="1" connectable="0">
          <mxGeometry x="591" y="566" width="20" height="30" as="geometry" />
        </mxCell>
        <mxCell id="-rISn7PbRb6-R7wNObkJ-263" value="" style="ellipse;whiteSpace=wrap;html=1;aspect=fixed;fillColor=#FF66B3;rotation=30;" parent="-rISn7PbRb6-R7wNObkJ-262" vertex="1">
          <mxGeometry x="14" y="4" width="10" height="10" as="geometry" />
        </mxCell>
        <mxCell id="-rISn7PbRb6-R7wNObkJ-264" value="" style="ellipse;whiteSpace=wrap;html=1;aspect=fixed;fillColor=#FF66B3;rotation=30;" parent="-rISn7PbRb6-R7wNObkJ-262" vertex="1">
          <mxGeometry x="-4" y="16" width="10" height="10" as="geometry" />
        </mxCell>
        <mxCell id="-rISn7PbRb6-R7wNObkJ-265" value="" style="endArrow=none;html=1;rounded=0;startArrow=none;" parent="-rISn7PbRb6-R7wNObkJ-262" source="-rISn7PbRb6-R7wNObkJ-264" target="-rISn7PbRb6-R7wNObkJ-263" edge="1">
          <mxGeometry width="50" height="50" relative="1" as="geometry">
            <mxPoint x="-26" y="58" as="sourcePoint" />
            <mxPoint x="42" y="39" as="targetPoint" />
          </mxGeometry>
        </mxCell>
        <mxCell id="-rISn7PbRb6-R7wNObkJ-266" value="" style="group;rotation=45;" parent="1" vertex="1" connectable="0">
          <mxGeometry x="538" y="605" width="20" height="56" as="geometry" />
        </mxCell>
        <mxCell id="-rISn7PbRb6-R7wNObkJ-267" value="" style="ellipse;whiteSpace=wrap;html=1;aspect=fixed;fillColor=#FF66B3;rotation=45;" parent="-rISn7PbRb6-R7wNObkJ-266" vertex="1">
          <mxGeometry x="75" y="12" width="10" height="10" as="geometry" />
        </mxCell>
        <mxCell id="-rISn7PbRb6-R7wNObkJ-268" value="" style="ellipse;whiteSpace=wrap;html=1;aspect=fixed;fillColor=#FF66B3;rotation=45;" parent="-rISn7PbRb6-R7wNObkJ-266" vertex="1">
          <mxGeometry x="55" y="18" width="10" height="10" as="geometry" />
        </mxCell>
        <mxCell id="-rISn7PbRb6-R7wNObkJ-269" value="" style="endArrow=none;html=1;rounded=0;startArrow=none;" parent="-rISn7PbRb6-R7wNObkJ-266" source="-rISn7PbRb6-R7wNObkJ-268" target="-rISn7PbRb6-R7wNObkJ-267" edge="1">
          <mxGeometry width="50" height="50" relative="1" as="geometry">
            <mxPoint x="24" y="52" as="sourcePoint" />
            <mxPoint x="94" y="51" as="targetPoint" />
          </mxGeometry>
        </mxCell>
        <mxCell id="-rISn7PbRb6-R7wNObkJ-270" value="" style="group;rotation=65;" parent="-rISn7PbRb6-R7wNObkJ-266" vertex="1" connectable="0">
          <mxGeometry x="52" y="-16" width="20" height="40" as="geometry" />
        </mxCell>
        <mxCell id="-rISn7PbRb6-R7wNObkJ-271" value="" style="ellipse;whiteSpace=wrap;html=1;aspect=fixed;fillColor=#FF66B3;rotation=65;" parent="-rISn7PbRb6-R7wNObkJ-270" vertex="1">
          <mxGeometry x="43" y="13" width="10" height="10" as="geometry" />
        </mxCell>
        <mxCell id="-rISn7PbRb6-R7wNObkJ-272" value="" style="ellipse;whiteSpace=wrap;html=1;aspect=fixed;fillColor=#FF66B3;rotation=65;" parent="-rISn7PbRb6-R7wNObkJ-270" vertex="1">
          <mxGeometry x="21" y="12" width="10" height="10" as="geometry" />
        </mxCell>
        <mxCell id="-rISn7PbRb6-R7wNObkJ-273" value="" style="endArrow=none;html=1;rounded=0;startArrow=none;" parent="-rISn7PbRb6-R7wNObkJ-270" edge="1">
          <mxGeometry width="50" height="50" relative="1" as="geometry">
            <mxPoint x="31" y="17" as="sourcePoint" />
            <mxPoint x="43" y="18" as="targetPoint" />
          </mxGeometry>
        </mxCell>
        <mxCell id="-rISn7PbRb6-R7wNObkJ-274" value="" style="group;rotation=140;" parent="-rISn7PbRb6-R7wNObkJ-270" vertex="1" connectable="0">
          <mxGeometry x="-11" y="9" width="20" height="30" as="geometry" />
        </mxCell>
        <mxCell id="-rISn7PbRb6-R7wNObkJ-275" value="" style="ellipse;whiteSpace=wrap;html=1;aspect=fixed;fillColor=#FF66B3;rotation=50;" parent="-rISn7PbRb6-R7wNObkJ-274" vertex="1">
          <mxGeometry x="49" y="11" width="10" height="10" as="geometry" />
        </mxCell>
        <mxCell id="-rISn7PbRb6-R7wNObkJ-276" value="" style="ellipse;whiteSpace=wrap;html=1;aspect=fixed;fillColor=#FF66B3;rotation=50;" parent="-rISn7PbRb6-R7wNObkJ-274" vertex="1">
          <mxGeometry x="27" y="15" width="10" height="10" as="geometry" />
        </mxCell>
        <mxCell id="-rISn7PbRb6-R7wNObkJ-277" value="" style="endArrow=none;html=1;rounded=0;startArrow=none;" parent="-rISn7PbRb6-R7wNObkJ-274" target="-rISn7PbRb6-R7wNObkJ-275" edge="1">
          <mxGeometry width="50" height="50" relative="1" as="geometry">
            <mxPoint x="37" y="19" as="sourcePoint" />
            <mxPoint x="63" y="51" as="targetPoint" />
          </mxGeometry>
        </mxCell>
        <mxCell id="-rISn7PbRb6-R7wNObkJ-278" value="" style="group;rotation=105;" parent="-rISn7PbRb6-R7wNObkJ-266" vertex="1" connectable="0">
          <mxGeometry x="62" y="-31" width="20" height="30" as="geometry" />
        </mxCell>
        <mxCell id="-rISn7PbRb6-R7wNObkJ-279" value="" style="ellipse;whiteSpace=wrap;html=1;aspect=fixed;fillColor=#FF66B3;rotation=15;" parent="-rISn7PbRb6-R7wNObkJ-278" vertex="1">
          <mxGeometry x="13" y="2" width="10" height="10" as="geometry" />
        </mxCell>
        <mxCell id="-rISn7PbRb6-R7wNObkJ-280" value="" style="ellipse;whiteSpace=wrap;html=1;aspect=fixed;fillColor=#FF66B3;rotation=15;" parent="-rISn7PbRb6-R7wNObkJ-278" vertex="1">
          <mxGeometry x="-3" y="18" width="10" height="10" as="geometry" />
        </mxCell>
        <mxCell id="-rISn7PbRb6-R7wNObkJ-281" value="" style="endArrow=none;html=1;rounded=0;startArrow=none;" parent="-rISn7PbRb6-R7wNObkJ-278" source="-rISn7PbRb6-R7wNObkJ-280" target="-rISn7PbRb6-R7wNObkJ-279" edge="1">
          <mxGeometry width="50" height="50" relative="1" as="geometry">
            <mxPoint x="-14" y="66" as="sourcePoint" />
            <mxPoint x="46" y="30" as="targetPoint" />
          </mxGeometry>
        </mxCell>
        <mxCell id="-rISn7PbRb6-R7wNObkJ-282" value="" style="group;rotation=85;" parent="1" vertex="1" connectable="0">
          <mxGeometry x="533" y="525" width="20" height="30" as="geometry" />
        </mxCell>
        <mxCell id="-rISn7PbRb6-R7wNObkJ-283" value="" style="ellipse;whiteSpace=wrap;html=1;aspect=fixed;fillColor=#FF66B3;rotation=-5;" parent="-rISn7PbRb6-R7wNObkJ-282" vertex="1">
          <mxGeometry x="10" width="10" height="10" as="geometry" />
        </mxCell>
        <mxCell id="-rISn7PbRb6-R7wNObkJ-284" value="" style="ellipse;whiteSpace=wrap;html=1;aspect=fixed;fillColor=#FF66B3;rotation=-5;" parent="-rISn7PbRb6-R7wNObkJ-282" vertex="1">
          <mxGeometry y="20" width="10" height="10" as="geometry" />
        </mxCell>
        <mxCell id="-rISn7PbRb6-R7wNObkJ-285" value="" style="endArrow=none;html=1;rounded=0;startArrow=none;" parent="-rISn7PbRb6-R7wNObkJ-282" source="-rISn7PbRb6-R7wNObkJ-284" target="-rISn7PbRb6-R7wNObkJ-283" edge="1">
          <mxGeometry width="50" height="50" relative="1" as="geometry">
            <mxPoint x="5" y="71" as="sourcePoint" />
            <mxPoint x="49" y="17" as="targetPoint" />
          </mxGeometry>
        </mxCell>
        <mxCell id="-rISn7PbRb6-R7wNObkJ-286" value="t=0.05s" style="text;html=1;align=center;verticalAlign=middle;resizable=0;points=[];autosize=1;strokeColor=none;fillColor=none;" parent="1" vertex="1">
          <mxGeometry x="230" y="482" width="60" height="30" as="geometry" />
        </mxCell>
        <mxCell id="-rISn7PbRb6-R7wNObkJ-287" value="t=0.1s" style="text;html=1;align=center;verticalAlign=middle;resizable=0;points=[];autosize=1;strokeColor=none;fillColor=none;" parent="1" vertex="1">
          <mxGeometry x="549" y="482" width="60" height="30" as="geometry" />
        </mxCell>
        <mxCell id="-rISn7PbRb6-R7wNObkJ-288" value="t=0.15s" style="text;html=1;align=center;verticalAlign=middle;resizable=0;points=[];autosize=1;strokeColor=none;fillColor=none;" parent="1" vertex="1">
          <mxGeometry x="230" y="724" width="60" height="30" as="geometry" />
        </mxCell>
        <mxCell id="-rISn7PbRb6-R7wNObkJ-289" value="t=0.3s" style="text;html=1;align=center;verticalAlign=middle;resizable=0;points=[];autosize=1;strokeColor=none;fillColor=none;" parent="1" vertex="1">
          <mxGeometry x="549" y="725" width="60" height="30" as="geometry" />
        </mxCell>
        <mxCell id="qNf5Lc8sicrPvdn472ly-1" value="" style="group" vertex="1" connectable="0" parent="1">
          <mxGeometry x="76" y="246" width="280" height="205.8771205041968" as="geometry" />
        </mxCell>
        <mxCell id="-rISn7PbRb6-R7wNObkJ-4" value="" style="swimlane;startSize=0;strokeWidth=2;" parent="qNf5Lc8sicrPvdn472ly-1" vertex="1">
          <mxGeometry width="280" height="200" as="geometry">
            <mxRectangle x="120" y="280" width="50" height="40" as="alternateBounds" />
          </mxGeometry>
        </mxCell>
        <mxCell id="-rISn7PbRb6-R7wNObkJ-17" value="" style="group;rotation=40;" parent="-rISn7PbRb6-R7wNObkJ-4" vertex="1" connectable="0">
          <mxGeometry x="50" y="120" width="20" height="30" as="geometry" />
        </mxCell>
        <mxCell id="-rISn7PbRb6-R7wNObkJ-7" value="" style="ellipse;whiteSpace=wrap;html=1;aspect=fixed;fillColor=#FF66B3;rotation=40;" parent="-rISn7PbRb6-R7wNObkJ-17" vertex="1">
          <mxGeometry x="15" y="6" width="10" height="10" as="geometry" />
        </mxCell>
        <mxCell id="-rISn7PbRb6-R7wNObkJ-5" value="" style="ellipse;whiteSpace=wrap;html=1;aspect=fixed;fillColor=#FF66B3;rotation=40;" parent="-rISn7PbRb6-R7wNObkJ-17" vertex="1">
          <mxGeometry x="-5" y="14" width="10" height="10" as="geometry" />
        </mxCell>
        <mxCell id="-rISn7PbRb6-R7wNObkJ-6" value="" style="endArrow=none;html=1;rounded=0;startArrow=none;" parent="-rISn7PbRb6-R7wNObkJ-17" source="-rISn7PbRb6-R7wNObkJ-5" target="-rISn7PbRb6-R7wNObkJ-7" edge="1">
          <mxGeometry width="50" height="50" relative="1" as="geometry">
            <mxPoint x="-33" y="51" as="sourcePoint" />
            <mxPoint x="37" y="44" as="targetPoint" />
          </mxGeometry>
        </mxCell>
        <mxCell id="-rISn7PbRb6-R7wNObkJ-26" value="" style="group;rotation=40;" parent="-rISn7PbRb6-R7wNObkJ-17" vertex="1" connectable="0">
          <mxGeometry x="-10" y="-24" width="20" height="30" as="geometry" />
        </mxCell>
        <mxCell id="-rISn7PbRb6-R7wNObkJ-27" value="" style="ellipse;whiteSpace=wrap;html=1;aspect=fixed;fillColor=#FF66B3;rotation=40;" parent="-rISn7PbRb6-R7wNObkJ-26" vertex="1">
          <mxGeometry x="15" y="6" width="10" height="10" as="geometry" />
        </mxCell>
        <mxCell id="-rISn7PbRb6-R7wNObkJ-28" value="" style="ellipse;whiteSpace=wrap;html=1;aspect=fixed;fillColor=#FF66B3;rotation=40;" parent="-rISn7PbRb6-R7wNObkJ-26" vertex="1">
          <mxGeometry x="-5" y="14" width="10" height="10" as="geometry" />
        </mxCell>
        <mxCell id="-rISn7PbRb6-R7wNObkJ-29" value="" style="endArrow=none;html=1;rounded=0;startArrow=none;" parent="-rISn7PbRb6-R7wNObkJ-26" source="-rISn7PbRb6-R7wNObkJ-28" target="-rISn7PbRb6-R7wNObkJ-27" edge="1">
          <mxGeometry width="50" height="50" relative="1" as="geometry">
            <mxPoint x="-33" y="51" as="sourcePoint" />
            <mxPoint x="37" y="44" as="targetPoint" />
          </mxGeometry>
        </mxCell>
        <mxCell id="-rISn7PbRb6-R7wNObkJ-37" value="" style="group;rotation=20;" parent="-rISn7PbRb6-R7wNObkJ-4" vertex="1" connectable="0">
          <mxGeometry x="35" y="80" width="20" height="30" as="geometry" />
        </mxCell>
        <mxCell id="-rISn7PbRb6-R7wNObkJ-38" value="" style="ellipse;whiteSpace=wrap;html=1;aspect=fixed;fillColor=#FF66B3;rotation=20;" parent="-rISn7PbRb6-R7wNObkJ-37" vertex="1">
          <mxGeometry x="13" y="3" width="10" height="10" as="geometry" />
        </mxCell>
        <mxCell id="-rISn7PbRb6-R7wNObkJ-39" value="" style="ellipse;whiteSpace=wrap;html=1;aspect=fixed;fillColor=#FF66B3;rotation=20;" parent="-rISn7PbRb6-R7wNObkJ-37" vertex="1">
          <mxGeometry x="-3" y="17" width="10" height="10" as="geometry" />
        </mxCell>
        <mxCell id="-rISn7PbRb6-R7wNObkJ-40" value="" style="endArrow=none;html=1;rounded=0;startArrow=none;" parent="-rISn7PbRb6-R7wNObkJ-37" source="-rISn7PbRb6-R7wNObkJ-39" target="-rISn7PbRb6-R7wNObkJ-38" edge="1">
          <mxGeometry width="50" height="50" relative="1" as="geometry">
            <mxPoint x="-18" y="64" as="sourcePoint" />
            <mxPoint x="45" y="33" as="targetPoint" />
          </mxGeometry>
        </mxCell>
        <mxCell id="-rISn7PbRb6-R7wNObkJ-41" value="" style="group;rotation=15;" parent="-rISn7PbRb6-R7wNObkJ-37" vertex="1" connectable="0">
          <mxGeometry x="-7" y="-17" width="20" height="30" as="geometry" />
        </mxCell>
        <mxCell id="-rISn7PbRb6-R7wNObkJ-42" value="" style="ellipse;whiteSpace=wrap;html=1;aspect=fixed;fillColor=#FF66B3;rotation=15;" parent="-rISn7PbRb6-R7wNObkJ-41" vertex="1">
          <mxGeometry x="12" y="2" width="10" height="10" as="geometry" />
        </mxCell>
        <mxCell id="-rISn7PbRb6-R7wNObkJ-43" value="" style="ellipse;whiteSpace=wrap;html=1;aspect=fixed;fillColor=#FF66B3;rotation=15;" parent="-rISn7PbRb6-R7wNObkJ-41" vertex="1">
          <mxGeometry x="-2" y="18" width="10" height="10" as="geometry" />
        </mxCell>
        <mxCell id="-rISn7PbRb6-R7wNObkJ-44" value="" style="endArrow=none;html=1;rounded=0;startArrow=none;" parent="-rISn7PbRb6-R7wNObkJ-41" source="-rISn7PbRb6-R7wNObkJ-43" target="-rISn7PbRb6-R7wNObkJ-42" edge="1">
          <mxGeometry width="50" height="50" relative="1" as="geometry">
            <mxPoint x="-14" y="66" as="sourcePoint" />
            <mxPoint x="47" y="30" as="targetPoint" />
          </mxGeometry>
        </mxCell>
        <mxCell id="-rISn7PbRb6-R7wNObkJ-22" value="" style="group;rotation=90;" parent="-rISn7PbRb6-R7wNObkJ-4" vertex="1" connectable="0">
          <mxGeometry x="15" y="40" width="20" height="30" as="geometry" />
        </mxCell>
        <mxCell id="-rISn7PbRb6-R7wNObkJ-23" value="" style="ellipse;whiteSpace=wrap;html=1;aspect=fixed;fillColor=#FF66B3;rotation=0;" parent="-rISn7PbRb6-R7wNObkJ-22" vertex="1">
          <mxGeometry x="11" width="10" height="10" as="geometry" />
        </mxCell>
        <mxCell id="-rISn7PbRb6-R7wNObkJ-24" value="" style="ellipse;whiteSpace=wrap;html=1;aspect=fixed;fillColor=#FF66B3;rotation=0;" parent="-rISn7PbRb6-R7wNObkJ-22" vertex="1">
          <mxGeometry x="-1" y="20" width="10" height="10" as="geometry" />
        </mxCell>
        <mxCell id="-rISn7PbRb6-R7wNObkJ-25" value="" style="endArrow=none;html=1;rounded=0;startArrow=none;" parent="-rISn7PbRb6-R7wNObkJ-22" source="-rISn7PbRb6-R7wNObkJ-24" target="-rISn7PbRb6-R7wNObkJ-23" edge="1">
          <mxGeometry width="50" height="50" relative="1" as="geometry">
            <mxPoint y="70" as="sourcePoint" />
            <mxPoint x="49" y="20" as="targetPoint" />
          </mxGeometry>
        </mxCell>
        <mxCell id="-rISn7PbRb6-R7wNObkJ-57" value="" style="group;rotation=90;" parent="-rISn7PbRb6-R7wNObkJ-4" vertex="1" connectable="0">
          <mxGeometry x="10" y="20" width="20" height="30" as="geometry" />
        </mxCell>
        <mxCell id="-rISn7PbRb6-R7wNObkJ-58" value="" style="ellipse;whiteSpace=wrap;html=1;aspect=fixed;fillColor=#FF66B3;rotation=0;" parent="-rISn7PbRb6-R7wNObkJ-57" vertex="1">
          <mxGeometry x="11" width="10" height="10" as="geometry" />
        </mxCell>
        <mxCell id="-rISn7PbRb6-R7wNObkJ-59" value="" style="ellipse;whiteSpace=wrap;html=1;aspect=fixed;fillColor=#FF66B3;rotation=0;" parent="-rISn7PbRb6-R7wNObkJ-57" vertex="1">
          <mxGeometry x="-1" y="20" width="10" height="10" as="geometry" />
        </mxCell>
        <mxCell id="-rISn7PbRb6-R7wNObkJ-60" value="" style="endArrow=none;html=1;rounded=0;startArrow=none;" parent="-rISn7PbRb6-R7wNObkJ-57" source="-rISn7PbRb6-R7wNObkJ-59" target="-rISn7PbRb6-R7wNObkJ-58" edge="1">
          <mxGeometry width="50" height="50" relative="1" as="geometry">
            <mxPoint y="70" as="sourcePoint" />
            <mxPoint x="49" y="20" as="targetPoint" />
          </mxGeometry>
        </mxCell>
        <mxCell id="-rISn7PbRb6-R7wNObkJ-18" value="" style="group;rotation=40;" parent="qNf5Lc8sicrPvdn472ly-1" vertex="1" connectable="0">
          <mxGeometry x="60" y="130" width="20" height="30" as="geometry" />
        </mxCell>
        <mxCell id="-rISn7PbRb6-R7wNObkJ-19" value="" style="ellipse;whiteSpace=wrap;html=1;aspect=fixed;fillColor=#FF66B3;rotation=40;" parent="-rISn7PbRb6-R7wNObkJ-18" vertex="1">
          <mxGeometry x="15" y="6" width="10" height="10" as="geometry" />
        </mxCell>
        <mxCell id="-rISn7PbRb6-R7wNObkJ-20" value="" style="ellipse;whiteSpace=wrap;html=1;aspect=fixed;fillColor=#FF66B3;rotation=40;" parent="-rISn7PbRb6-R7wNObkJ-18" vertex="1">
          <mxGeometry x="-5" y="14" width="10" height="10" as="geometry" />
        </mxCell>
        <mxCell id="-rISn7PbRb6-R7wNObkJ-21" value="" style="endArrow=none;html=1;rounded=0;startArrow=none;" parent="-rISn7PbRb6-R7wNObkJ-18" source="-rISn7PbRb6-R7wNObkJ-20" target="-rISn7PbRb6-R7wNObkJ-19" edge="1">
          <mxGeometry width="50" height="50" relative="1" as="geometry">
            <mxPoint x="-33" y="51" as="sourcePoint" />
            <mxPoint x="37" y="44" as="targetPoint" />
          </mxGeometry>
        </mxCell>
        <mxCell id="-rISn7PbRb6-R7wNObkJ-33" value="" style="group;rotation=40;" parent="qNf5Lc8sicrPvdn472ly-1" vertex="1" connectable="0">
          <mxGeometry x="50" y="106" width="20" height="30" as="geometry" />
        </mxCell>
        <mxCell id="-rISn7PbRb6-R7wNObkJ-34" value="" style="ellipse;whiteSpace=wrap;html=1;aspect=fixed;fillColor=#FF66B3;rotation=40;" parent="-rISn7PbRb6-R7wNObkJ-33" vertex="1">
          <mxGeometry x="15" y="6" width="10" height="10" as="geometry" />
        </mxCell>
        <mxCell id="-rISn7PbRb6-R7wNObkJ-35" value="" style="ellipse;whiteSpace=wrap;html=1;aspect=fixed;fillColor=#FF66B3;rotation=40;" parent="-rISn7PbRb6-R7wNObkJ-33" vertex="1">
          <mxGeometry x="-5" y="14" width="10" height="10" as="geometry" />
        </mxCell>
        <mxCell id="-rISn7PbRb6-R7wNObkJ-36" value="" style="endArrow=none;html=1;rounded=0;startArrow=none;" parent="-rISn7PbRb6-R7wNObkJ-33" source="-rISn7PbRb6-R7wNObkJ-35" target="-rISn7PbRb6-R7wNObkJ-34" edge="1">
          <mxGeometry width="50" height="50" relative="1" as="geometry">
            <mxPoint x="-33" y="51" as="sourcePoint" />
            <mxPoint x="37" y="44" as="targetPoint" />
          </mxGeometry>
        </mxCell>
        <mxCell id="-rISn7PbRb6-R7wNObkJ-45" value="" style="group;rotation=40;" parent="qNf5Lc8sicrPvdn472ly-1" vertex="1" connectable="0">
          <mxGeometry x="70" y="150" width="20" height="56" as="geometry" />
        </mxCell>
        <mxCell id="-rISn7PbRb6-R7wNObkJ-46" value="" style="ellipse;whiteSpace=wrap;html=1;aspect=fixed;fillColor=#FF66B3;rotation=40;" parent="-rISn7PbRb6-R7wNObkJ-45" vertex="1">
          <mxGeometry x="15" y="6" width="10" height="10" as="geometry" />
        </mxCell>
        <mxCell id="-rISn7PbRb6-R7wNObkJ-47" value="" style="ellipse;whiteSpace=wrap;html=1;aspect=fixed;fillColor=#FF66B3;rotation=40;" parent="-rISn7PbRb6-R7wNObkJ-45" vertex="1">
          <mxGeometry x="-5" y="14" width="10" height="10" as="geometry" />
        </mxCell>
        <mxCell id="-rISn7PbRb6-R7wNObkJ-48" value="" style="endArrow=none;html=1;rounded=0;startArrow=none;" parent="-rISn7PbRb6-R7wNObkJ-45" source="-rISn7PbRb6-R7wNObkJ-47" target="-rISn7PbRb6-R7wNObkJ-46" edge="1">
          <mxGeometry width="50" height="50" relative="1" as="geometry">
            <mxPoint x="-33" y="51" as="sourcePoint" />
            <mxPoint x="37" y="44" as="targetPoint" />
          </mxGeometry>
        </mxCell>
        <mxCell id="-rISn7PbRb6-R7wNObkJ-49" value="" style="group;rotation=60;" parent="-rISn7PbRb6-R7wNObkJ-45" vertex="1" connectable="0">
          <mxGeometry y="16" width="20" height="40" as="geometry" />
        </mxCell>
        <mxCell id="-rISn7PbRb6-R7wNObkJ-50" value="" style="ellipse;whiteSpace=wrap;html=1;aspect=fixed;fillColor=#FF66B3;rotation=60;" parent="-rISn7PbRb6-R7wNObkJ-49" vertex="1">
          <mxGeometry x="16" y="10" width="10" height="10" as="geometry" />
        </mxCell>
        <mxCell id="-rISn7PbRb6-R7wNObkJ-51" value="" style="ellipse;whiteSpace=wrap;html=1;aspect=fixed;fillColor=#FF66B3;rotation=60;" parent="-rISn7PbRb6-R7wNObkJ-49" vertex="1">
          <mxGeometry x="-6" y="10" width="10" height="10" as="geometry" />
        </mxCell>
        <mxCell id="-rISn7PbRb6-R7wNObkJ-52" value="" style="endArrow=none;html=1;rounded=0;startArrow=none;" parent="-rISn7PbRb6-R7wNObkJ-49" source="-rISn7PbRb6-R7wNObkJ-51" target="-rISn7PbRb6-R7wNObkJ-50" edge="1">
          <mxGeometry width="50" height="50" relative="1" as="geometry">
            <mxPoint x="-43" y="34" as="sourcePoint" />
            <mxPoint x="25" y="51" as="targetPoint" />
          </mxGeometry>
        </mxCell>
        <mxCell id="-rISn7PbRb6-R7wNObkJ-65" value="" style="group;rotation=135;" parent="-rISn7PbRb6-R7wNObkJ-49" vertex="1" connectable="0">
          <mxGeometry x="-11" y="10" width="20" height="30" as="geometry" />
        </mxCell>
        <mxCell id="-rISn7PbRb6-R7wNObkJ-66" value="" style="ellipse;whiteSpace=wrap;html=1;aspect=fixed;fillColor=#FF66B3;rotation=45;" parent="-rISn7PbRb6-R7wNObkJ-65" vertex="1">
          <mxGeometry x="16" y="7" width="10" height="10" as="geometry" />
        </mxCell>
        <mxCell id="-rISn7PbRb6-R7wNObkJ-67" value="" style="ellipse;whiteSpace=wrap;html=1;aspect=fixed;fillColor=#FF66B3;rotation=45;" parent="-rISn7PbRb6-R7wNObkJ-65" vertex="1">
          <mxGeometry x="-6" y="13" width="10" height="10" as="geometry" />
        </mxCell>
        <mxCell id="-rISn7PbRb6-R7wNObkJ-68" value="" style="endArrow=none;html=1;rounded=0;startArrow=none;" parent="-rISn7PbRb6-R7wNObkJ-65" source="-rISn7PbRb6-R7wNObkJ-67" target="-rISn7PbRb6-R7wNObkJ-66" edge="1">
          <mxGeometry width="50" height="50" relative="1" as="geometry">
            <mxPoint x="-36" y="47" as="sourcePoint" />
            <mxPoint x="34" y="46" as="targetPoint" />
          </mxGeometry>
        </mxCell>
        <mxCell id="-rISn7PbRb6-R7wNObkJ-61" value="" style="group;rotation=120;" parent="-rISn7PbRb6-R7wNObkJ-45" vertex="1" connectable="0">
          <mxGeometry x="-5" y="-6" width="20" height="30" as="geometry" />
        </mxCell>
        <mxCell id="-rISn7PbRb6-R7wNObkJ-62" value="" style="ellipse;whiteSpace=wrap;html=1;aspect=fixed;fillColor=#FF66B3;rotation=30;" parent="-rISn7PbRb6-R7wNObkJ-61" vertex="1">
          <mxGeometry x="15" y="4" width="10" height="10" as="geometry" />
        </mxCell>
        <mxCell id="-rISn7PbRb6-R7wNObkJ-63" value="" style="ellipse;whiteSpace=wrap;html=1;aspect=fixed;fillColor=#FF66B3;rotation=30;" parent="-rISn7PbRb6-R7wNObkJ-61" vertex="1">
          <mxGeometry x="-5" y="16" width="10" height="10" as="geometry" />
        </mxCell>
        <mxCell id="-rISn7PbRb6-R7wNObkJ-64" value="" style="endArrow=none;html=1;rounded=0;startArrow=none;" parent="-rISn7PbRb6-R7wNObkJ-61" source="-rISn7PbRb6-R7wNObkJ-63" target="-rISn7PbRb6-R7wNObkJ-62" edge="1">
          <mxGeometry width="50" height="50" relative="1" as="geometry">
            <mxPoint x="-26" y="58" as="sourcePoint" />
            <mxPoint x="41" y="39" as="targetPoint" />
          </mxGeometry>
        </mxCell>
        <mxCell id="-rISn7PbRb6-R7wNObkJ-53" value="" style="group;rotation=90;" parent="qNf5Lc8sicrPvdn472ly-1" vertex="1" connectable="0">
          <mxGeometry x="25" y="50" width="20" height="30" as="geometry" />
        </mxCell>
        <mxCell id="-rISn7PbRb6-R7wNObkJ-54" value="" style="ellipse;whiteSpace=wrap;html=1;aspect=fixed;fillColor=#FF66B3;rotation=0;" parent="-rISn7PbRb6-R7wNObkJ-53" vertex="1">
          <mxGeometry x="11" width="10" height="10" as="geometry" />
        </mxCell>
        <mxCell id="-rISn7PbRb6-R7wNObkJ-55" value="" style="ellipse;whiteSpace=wrap;html=1;aspect=fixed;fillColor=#FF66B3;rotation=0;" parent="-rISn7PbRb6-R7wNObkJ-53" vertex="1">
          <mxGeometry x="-1" y="20" width="10" height="10" as="geometry" />
        </mxCell>
        <mxCell id="-rISn7PbRb6-R7wNObkJ-56" value="" style="endArrow=none;html=1;rounded=0;startArrow=none;" parent="-rISn7PbRb6-R7wNObkJ-53" source="-rISn7PbRb6-R7wNObkJ-55" target="-rISn7PbRb6-R7wNObkJ-54" edge="1">
          <mxGeometry width="50" height="50" relative="1" as="geometry">
            <mxPoint y="70" as="sourcePoint" />
            <mxPoint x="49" y="20" as="targetPoint" />
          </mxGeometry>
        </mxCell>
        <mxCell id="-rISn7PbRb6-R7wNObkJ-69" value="" style="swimlane;startSize=0;strokeWidth=2;container=0;" parent="1" vertex="1">
          <mxGeometry x="440" y="280" width="280" height="200" as="geometry">
            <mxRectangle x="120" y="280" width="50" height="40" as="alternateBounds" />
          </mxGeometry>
        </mxCell>
        <mxCell id="-rISn7PbRb6-R7wNObkJ-71" value="" style="ellipse;whiteSpace=wrap;html=1;aspect=fixed;fillColor=#FF66B3;rotation=40;container=0;" parent="1" vertex="1">
          <mxGeometry x="531" y="406" width="10" height="10" as="geometry" />
        </mxCell>
        <mxCell id="-rISn7PbRb6-R7wNObkJ-72" value="" style="ellipse;whiteSpace=wrap;html=1;aspect=fixed;fillColor=#FF66B3;rotation=40;container=0;" parent="1" vertex="1">
          <mxGeometry x="506" y="413" width="10" height="10" as="geometry" />
        </mxCell>
        <mxCell id="-rISn7PbRb6-R7wNObkJ-73" value="" style="endArrow=none;html=1;rounded=0;startArrow=none;" parent="1" source="-rISn7PbRb6-R7wNObkJ-72" target="-rISn7PbRb6-R7wNObkJ-71" edge="1">
          <mxGeometry width="50" height="50" relative="1" as="geometry">
            <mxPoint x="483" y="451" as="sourcePoint" />
            <mxPoint x="553" y="444" as="targetPoint" />
          </mxGeometry>
        </mxCell>
        <mxCell id="-rISn7PbRb6-R7wNObkJ-75" value="" style="ellipse;whiteSpace=wrap;html=1;aspect=fixed;fillColor=#FF66B3;rotation=40;container=0;" parent="1" vertex="1">
          <mxGeometry x="521" y="382" width="10" height="10" as="geometry" />
        </mxCell>
        <mxCell id="-rISn7PbRb6-R7wNObkJ-76" value="" style="ellipse;whiteSpace=wrap;html=1;aspect=fixed;fillColor=#FF66B3;rotation=40;container=0;" parent="1" vertex="1">
          <mxGeometry x="501" y="390" width="10" height="10" as="geometry" />
        </mxCell>
        <mxCell id="-rISn7PbRb6-R7wNObkJ-77" value="" style="endArrow=none;html=1;rounded=0;startArrow=none;" parent="1" source="-rISn7PbRb6-R7wNObkJ-76" target="-rISn7PbRb6-R7wNObkJ-75" edge="1">
          <mxGeometry width="50" height="50" relative="1" as="geometry">
            <mxPoint x="473" y="427" as="sourcePoint" />
            <mxPoint x="543" y="420" as="targetPoint" />
          </mxGeometry>
        </mxCell>
        <mxCell id="-rISn7PbRb6-R7wNObkJ-79" value="" style="ellipse;whiteSpace=wrap;html=1;aspect=fixed;fillColor=#FF66B3;rotation=20;container=0;" parent="1" vertex="1">
          <mxGeometry x="521" y="363" width="10" height="10" as="geometry" />
        </mxCell>
        <mxCell id="-rISn7PbRb6-R7wNObkJ-80" value="" style="ellipse;whiteSpace=wrap;html=1;aspect=fixed;fillColor=#FF66B3;rotation=20;container=0;" parent="1" vertex="1">
          <mxGeometry x="505" y="377" width="10" height="10" as="geometry" />
        </mxCell>
        <mxCell id="-rISn7PbRb6-R7wNObkJ-81" value="" style="endArrow=none;html=1;rounded=0;startArrow=none;" parent="1" source="-rISn7PbRb6-R7wNObkJ-80" target="-rISn7PbRb6-R7wNObkJ-79" edge="1">
          <mxGeometry width="50" height="50" relative="1" as="geometry">
            <mxPoint x="490" y="424" as="sourcePoint" />
            <mxPoint x="553" y="393" as="targetPoint" />
          </mxGeometry>
        </mxCell>
        <mxCell id="-rISn7PbRb6-R7wNObkJ-83" value="" style="ellipse;whiteSpace=wrap;html=1;aspect=fixed;fillColor=#FF66B3;rotation=15;container=0;" parent="1" vertex="1">
          <mxGeometry x="513" y="345" width="10" height="10" as="geometry" />
        </mxCell>
        <mxCell id="-rISn7PbRb6-R7wNObkJ-84" value="" style="ellipse;whiteSpace=wrap;html=1;aspect=fixed;fillColor=#FF66B3;rotation=15;container=0;" parent="1" vertex="1">
          <mxGeometry x="499" y="361" width="10" height="10" as="geometry" />
        </mxCell>
        <mxCell id="-rISn7PbRb6-R7wNObkJ-85" value="" style="endArrow=none;html=1;rounded=0;startArrow=none;" parent="1" source="-rISn7PbRb6-R7wNObkJ-84" target="-rISn7PbRb6-R7wNObkJ-83" edge="1">
          <mxGeometry width="50" height="50" relative="1" as="geometry">
            <mxPoint x="487" y="409" as="sourcePoint" />
            <mxPoint x="548" y="373" as="targetPoint" />
          </mxGeometry>
        </mxCell>
        <mxCell id="-rISn7PbRb6-R7wNObkJ-87" value="" style="ellipse;whiteSpace=wrap;html=1;aspect=fixed;fillColor=#FF66B3;rotation=0;container=0;" parent="1" vertex="1">
          <mxGeometry x="492" y="320" width="10" height="10" as="geometry" />
        </mxCell>
        <mxCell id="-rISn7PbRb6-R7wNObkJ-88" value="" style="ellipse;whiteSpace=wrap;html=1;aspect=fixed;fillColor=#FF66B3;rotation=0;container=0;" parent="1" vertex="1">
          <mxGeometry x="480" y="340" width="10" height="10" as="geometry" />
        </mxCell>
        <mxCell id="-rISn7PbRb6-R7wNObkJ-89" value="" style="endArrow=none;html=1;rounded=0;startArrow=none;" parent="1" source="-rISn7PbRb6-R7wNObkJ-88" target="-rISn7PbRb6-R7wNObkJ-87" edge="1">
          <mxGeometry width="50" height="50" relative="1" as="geometry">
            <mxPoint x="481" y="390" as="sourcePoint" />
            <mxPoint x="530" y="340" as="targetPoint" />
          </mxGeometry>
        </mxCell>
        <mxCell id="-rISn7PbRb6-R7wNObkJ-91" value="" style="ellipse;whiteSpace=wrap;html=1;aspect=fixed;fillColor=#FF66B3;rotation=0;container=0;" parent="1" vertex="1">
          <mxGeometry x="486" y="300" width="10" height="10" as="geometry" />
        </mxCell>
        <mxCell id="-rISn7PbRb6-R7wNObkJ-92" value="" style="ellipse;whiteSpace=wrap;html=1;aspect=fixed;fillColor=#FF66B3;rotation=0;container=0;" parent="1" vertex="1">
          <mxGeometry x="475" y="320" width="10" height="10" as="geometry" />
        </mxCell>
        <mxCell id="-rISn7PbRb6-R7wNObkJ-93" value="" style="endArrow=none;html=1;rounded=0;startArrow=none;" parent="1" source="-rISn7PbRb6-R7wNObkJ-92" edge="1">
          <mxGeometry width="50" height="50" relative="1" as="geometry">
            <mxPoint x="476" y="370" as="sourcePoint" />
            <mxPoint x="489.4275212228438" y="309.2874646285941" as="targetPoint" />
          </mxGeometry>
        </mxCell>
        <mxCell id="-rISn7PbRb6-R7wNObkJ-95" value="" style="ellipse;whiteSpace=wrap;html=1;aspect=fixed;fillColor=#FF66B3;rotation=40;container=0;" parent="1" vertex="1">
          <mxGeometry x="541" y="416" width="10" height="10" as="geometry" />
        </mxCell>
        <mxCell id="-rISn7PbRb6-R7wNObkJ-96" value="" style="ellipse;whiteSpace=wrap;html=1;aspect=fixed;fillColor=#FF66B3;rotation=40;container=0;" parent="1" vertex="1">
          <mxGeometry x="521" y="424" width="10" height="10" as="geometry" />
        </mxCell>
        <mxCell id="-rISn7PbRb6-R7wNObkJ-97" value="" style="endArrow=none;html=1;rounded=0;startArrow=none;" parent="1" source="-rISn7PbRb6-R7wNObkJ-96" target="-rISn7PbRb6-R7wNObkJ-95" edge="1">
          <mxGeometry width="50" height="50" relative="1" as="geometry">
            <mxPoint x="493" y="461" as="sourcePoint" />
            <mxPoint x="563" y="454" as="targetPoint" />
          </mxGeometry>
        </mxCell>
        <mxCell id="-rISn7PbRb6-R7wNObkJ-99" value="" style="ellipse;whiteSpace=wrap;html=1;aspect=fixed;fillColor=#FF66B3;rotation=30;container=0;" parent="1" vertex="1">
          <mxGeometry x="537" y="390" width="10" height="10" as="geometry" />
        </mxCell>
        <mxCell id="-rISn7PbRb6-R7wNObkJ-100" value="" style="ellipse;whiteSpace=wrap;html=1;aspect=fixed;fillColor=#FF66B3;rotation=30;container=0;" parent="1" vertex="1">
          <mxGeometry x="519" y="402" width="10" height="10" as="geometry" />
        </mxCell>
        <mxCell id="-rISn7PbRb6-R7wNObkJ-101" value="" style="endArrow=none;html=1;rounded=0;startArrow=none;" parent="1" source="-rISn7PbRb6-R7wNObkJ-100" target="-rISn7PbRb6-R7wNObkJ-99" edge="1">
          <mxGeometry width="50" height="50" relative="1" as="geometry">
            <mxPoint x="497" y="444" as="sourcePoint" />
            <mxPoint x="565" y="425" as="targetPoint" />
          </mxGeometry>
        </mxCell>
        <mxCell id="-rISn7PbRb6-R7wNObkJ-103" value="" style="ellipse;whiteSpace=wrap;html=1;aspect=fixed;fillColor=#FF66B3;rotation=40;container=0;" parent="1" vertex="1">
          <mxGeometry x="557" y="436" width="10" height="10" as="geometry" />
        </mxCell>
        <mxCell id="-rISn7PbRb6-R7wNObkJ-104" value="" style="ellipse;whiteSpace=wrap;html=1;aspect=fixed;fillColor=#FF66B3;rotation=40;container=0;" parent="1" vertex="1">
          <mxGeometry x="537" y="444" width="10" height="10" as="geometry" />
        </mxCell>
        <mxCell id="-rISn7PbRb6-R7wNObkJ-105" value="" style="endArrow=none;html=1;rounded=0;startArrow=none;" parent="1" source="-rISn7PbRb6-R7wNObkJ-104" target="-rISn7PbRb6-R7wNObkJ-103" edge="1">
          <mxGeometry width="50" height="50" relative="1" as="geometry">
            <mxPoint x="509" y="481" as="sourcePoint" />
            <mxPoint x="579" y="474" as="targetPoint" />
          </mxGeometry>
        </mxCell>
        <mxCell id="-rISn7PbRb6-R7wNObkJ-107" value="" style="ellipse;whiteSpace=wrap;html=1;aspect=fixed;fillColor=#FF66B3;rotation=60;container=0;" parent="1" vertex="1">
          <mxGeometry x="603" y="445" width="10" height="10" as="geometry" />
        </mxCell>
        <mxCell id="-rISn7PbRb6-R7wNObkJ-108" value="" style="ellipse;whiteSpace=wrap;html=1;aspect=fixed;fillColor=#FF66B3;rotation=60;container=0;" parent="1" vertex="1">
          <mxGeometry x="581" y="445" width="10" height="10" as="geometry" />
        </mxCell>
        <mxCell id="-rISn7PbRb6-R7wNObkJ-109" value="" style="endArrow=none;html=1;rounded=0;startArrow=none;" parent="1" source="-rISn7PbRb6-R7wNObkJ-108" target="-rISn7PbRb6-R7wNObkJ-107" edge="1">
          <mxGeometry width="50" height="50" relative="1" as="geometry">
            <mxPoint x="544" y="469" as="sourcePoint" />
            <mxPoint x="612" y="486" as="targetPoint" />
          </mxGeometry>
        </mxCell>
        <mxCell id="-rISn7PbRb6-R7wNObkJ-111" value="" style="ellipse;whiteSpace=wrap;html=1;aspect=fixed;fillColor=#FF66B3;rotation=45;container=0;" parent="1" vertex="1">
          <mxGeometry x="566" y="452" width="10" height="10" as="geometry" />
        </mxCell>
        <mxCell id="-rISn7PbRb6-R7wNObkJ-112" value="" style="ellipse;whiteSpace=wrap;html=1;aspect=fixed;fillColor=#FF66B3;rotation=45;container=0;" parent="1" vertex="1">
          <mxGeometry x="544" y="458" width="10" height="10" as="geometry" />
        </mxCell>
        <mxCell id="-rISn7PbRb6-R7wNObkJ-113" value="" style="endArrow=none;html=1;rounded=0;startArrow=none;" parent="1" source="-rISn7PbRb6-R7wNObkJ-112" target="-rISn7PbRb6-R7wNObkJ-111" edge="1">
          <mxGeometry width="50" height="50" relative="1" as="geometry">
            <mxPoint x="514" y="492" as="sourcePoint" />
            <mxPoint x="584" y="491" as="targetPoint" />
          </mxGeometry>
        </mxCell>
        <mxCell id="-rISn7PbRb6-R7wNObkJ-115" value="" style="ellipse;whiteSpace=wrap;html=1;aspect=fixed;fillColor=#FF66B3;rotation=30;container=0;" parent="1" vertex="1">
          <mxGeometry x="552" y="428" width="10" height="10" as="geometry" />
        </mxCell>
        <mxCell id="-rISn7PbRb6-R7wNObkJ-116" value="" style="ellipse;whiteSpace=wrap;html=1;aspect=fixed;fillColor=#FF66B3;rotation=30;container=0;" parent="1" vertex="1">
          <mxGeometry x="532" y="440" width="10" height="10" as="geometry" />
        </mxCell>
        <mxCell id="-rISn7PbRb6-R7wNObkJ-117" value="" style="endArrow=none;html=1;rounded=0;startArrow=none;" parent="1" source="-rISn7PbRb6-R7wNObkJ-116" target="-rISn7PbRb6-R7wNObkJ-115" edge="1">
          <mxGeometry width="50" height="50" relative="1" as="geometry">
            <mxPoint x="511" y="482" as="sourcePoint" />
            <mxPoint x="578" y="463" as="targetPoint" />
          </mxGeometry>
        </mxCell>
        <mxCell id="-rISn7PbRb6-R7wNObkJ-119" value="" style="ellipse;whiteSpace=wrap;html=1;aspect=fixed;fillColor=#FF66B3;rotation=0;container=0;" parent="1" vertex="1">
          <mxGeometry x="503" y="328" width="10" height="10" as="geometry" />
        </mxCell>
        <mxCell id="-rISn7PbRb6-R7wNObkJ-120" value="" style="ellipse;whiteSpace=wrap;html=1;aspect=fixed;fillColor=#FF66B3;rotation=0;container=0;" parent="1" vertex="1">
          <mxGeometry x="491" y="348" width="10" height="10" as="geometry" />
        </mxCell>
        <mxCell id="-rISn7PbRb6-R7wNObkJ-121" value="" style="endArrow=none;html=1;rounded=0;startArrow=none;" parent="1" source="-rISn7PbRb6-R7wNObkJ-120" target="-rISn7PbRb6-R7wNObkJ-119" edge="1">
          <mxGeometry width="50" height="50" relative="1" as="geometry">
            <mxPoint x="492" y="398" as="sourcePoint" />
            <mxPoint x="541" y="348" as="targetPoint" />
          </mxGeometry>
        </mxCell>
      </root>
    </mxGraphModel>
  </diagram>
</mxfile>
